# xmcd CD database file
#
# Track frame offsets:
#	150
#	22557
#	46087
#	61855
#	85045
#	113990
#	131727
#	161217
#	179330
#	201752
#
# Disc length: 2967 seconds
#
# Revision: 1
# Processed by: cddbd v1.5.2PL0 Copyright (c) Steve Scherf et al.
# Submitted via: CDex 1.51
#
DISCID=790b950a
DTITLE=Fleetwood Mac - London Live '68
DYEAR=1968
DGENRE=Blues Rock
TTITLE0=Got To Move
TTITLE1=I Held My Baby Last Night
TTITLE2=My Baby's Sweet
TTITLE3=My Baby's A Good 'Un
TTITLE4=Don't Know Which Way To Go
TTITLE5=Buzz Me
TTITLE6=Worried Dream
TTITLE7=The World Keeps On Turning
TTITLE8=How Blue Can You Get
TTITLE9=Bleeding Heart
EXTD=Recorded live in London - April, 1968\nPeter Green - lead guitar, vocals\nJohn McVie - bass guitar\nJeremy Spencer - lead guitar, vocals\nMick Fleetwood - drums YEAR: 1968
EXTT0=
EXTT1=
EXTT2=
EXTT3=
EXTT4=
EXTT5=
EXTT6=
EXTT7=
EXTT8=
EXTT9=
PLAYORDER=
